<?xml version="1.0" encoding="UTF-8"?><svg id="Layer_2" xmlns="http://www.w3.org/2000/svg" viewBox="0 0 113.83 126.83"><defs><style>.cls-1{stroke-linecap:square;stroke-linejoin:bevel;}.cls-1,.cls-2,.cls-3,.cls-4{stroke:#000;}.cls-1,.cls-3{fill:none;}.cls-5{font-family:ABCDiatypeMonoUnlicensedTrial-Regular, 'ABC Diatype Mono Unlicensed Trial';font-size:6px;}.cls-2,.cls-3,.cls-4{stroke-miterlimit:10;}.cls-2,.cls-4{fill:#fff;}.cls-4{stroke-width:.66px;}</style></defs><g id="Layer_2-2"><rect class="cls-4" x="25.33" y=".33" width="48" height="7"/><text class="cls-5" transform="translate(28.23 5.59)"><tspan x="0" y="0">Central Axis</tspan></text><polyline class="cls-3" points="64.83 84.33 76.83 45.33 89.52 84.33"/><line class="cls-3" x1="23.33" y1="45.33" x2="49.33" y2="18.33"/><line class="cls-3" x1="49.33" y1="18.33" x2="77.33" y2="45.33"/><circle class="cls-2" cx="49.01" cy="18.81" r="4.5"/><circle class="cls-2" cx="76.83" cy="44.83" r="4.5"/><circle cx="10.51" cy="85.56" r="2.75"/><polyline class="cls-3" points="10.83 84.33 22.83 45.33 35.52 84.33"/><circle cx="35.51" cy="85.56" r="2.75"/><circle cx="64.51" cy="85.56" r="2.75"/><circle cx="89.51" cy="85.56" r="2.75"/><circle class="cls-2" cx="22.83" cy="44.83" r="4.5"/><g><polyline class="cls-1" points="27.33 117.33 35.51 85.56 43.33 117.33"/><line class="cls-1" x1="38.33" y1="117.33" x2="35.51" y2="85.56"/><line class="cls-1" x1="32.51" y1="117.33" x2="35.33" y2="85.56"/></g><g><polyline class="cls-1" points="2.33 117.33 10.51 85.56 18.33 117.33"/><line class="cls-1" x1="13.33" y1="117.33" x2="10.51" y2="85.56"/><line class="cls-1" x1="7.51" y1="117.33" x2="10.33" y2="85.56"/></g><g><polyline class="cls-1" points="81.33 117.33 89.51 85.56 97.33 117.33"/><line class="cls-1" x1="92.33" y1="117.33" x2="89.51" y2="85.56"/><line class="cls-1" x1="86.51" y1="117.33" x2="89.33" y2="85.56"/></g><g><polyline class="cls-1" points="56.33 117.33 64.51 85.56 72.33 117.33"/><line class="cls-1" x1="67.33" y1="117.33" x2="64.51" y2="85.56"/><line class="cls-1" x1="61.51" y1="117.33" x2="64.33" y2="85.56"/></g><rect class="cls-4" x="26.33" y="30.33" width="44" height="6"/><text class="cls-5" transform="translate(28.83 35.03)"><tspan x="0" y="0">main artery</tspan></text><rect class="cls-4" x="67.33" y="119.33" width="33" height="6"/><text class="cls-5" transform="translate(68.83 124.03)"><tspan x="0" y="0">arteries</tspan></text><rect class="cls-4" x=".33" y="119.33" width="38" height="6"/><text class="cls-5" transform="translate(.83 124.03)"><tspan x="0" y="0">subsidiary</tspan></text></g></svg>