<?xml version="1.0" encoding="UTF-8"?><svg id="Layer_2" xmlns="http://www.w3.org/2000/svg" viewBox="0 0 524.26 117.3"><defs><style>.cls-1{stroke-width:.92px;}.cls-1,.cls-2,.cls-3,.cls-4,.cls-5{fill:#fff;}.cls-1,.cls-2,.cls-3,.cls-4,.cls-5,.cls-6{stroke:#000;stroke-miterlimit:10;}.cls-2{stroke-width:.77px;}.cls-3{stroke-width:.98px;}.cls-7{font-family:ABCDiatypeMonoUnlicensedTrial-Regular, 'ABC Diatype Mono Unlicensed Trial';font-size:9px;}.cls-5{stroke-width:.83px;}.cls-6{fill:none;}</style></defs><g id="Layer_2-2"><line class="cls-6" x1="296.41" y1="38.35" x2="296.6" y2="17.15"/><line class="cls-6" x1="393.91" y1="77.65" x2="452.6" y2="39.15"/><polyline class="cls-6" points="452.41 78.35 452.6 39.15 510.78 77.65"/><g><polyline class="cls-6" points="125.1 115.15 137.1 76.15 149.79 115.15"/><line class="cls-6" x1="137.5" y1="115.15" x2="137.1" y2="76.15"/></g><g><polyline class="cls-6" points="342.88 116.62 354.88 77.62 367.57 116.62"/><line class="cls-6" x1="355.28" y1="116.62" x2="354.88" y2="77.62"/></g><g><polyline class="cls-6" points="303.88 116.62 315.88 77.62 328.57 116.62"/><line class="cls-6" x1="316.28" y1="116.62" x2="315.88" y2="77.62"/></g><g><polyline class="cls-6" points="264.88 116.62 276.88 77.62 289.57 116.62"/><line class="cls-6" x1="277.28" y1="116.62" x2="276.88" y2="77.62"/></g><g><polyline class="cls-6" points="225.88 116.62 237.88 77.62 250.57 116.62"/><line class="cls-6" x1="238.28" y1="116.62" x2="237.88" y2="77.62"/></g><g><polyline class="cls-6" points="184.1 115.15 196.1 76.15 208.79 115.15"/><line class="cls-6" x1="196.5" y1="115.15" x2="196.1" y2="76.15"/></g><rect class="cls-1" x="270.41" y=".85" width="51" height="8"/><text class="cls-7" transform="translate(271.52 7.65)"><tspan x="0" y="0">Greenbelt</tspan></text><polyline class="cls-6" points="78.91 75.65 137.6 37.15 297.41 16.85"/><line class="cls-6" x1="451.72" y1="37.15" x2="291.91" y2="16.85"/><polyline class="cls-6" points="137.41 76.35 137.6 37.15 195.78 75.65"/><polyline class="cls-6" points="315.64 76.35 296.72 37.85 354.9 76.35"/><polyline class="cls-6" points="234.8 76.65 296.72 37.85 276.37 76.35"/><circle class="cls-4" cx="295.91" cy="16.35" r="4.5"/><circle class="cls-4" cx="137.1" cy="36.65" r="4.5"/><circle class="cls-4" cx="452.1" cy="36.65" r="4.5"/><circle class="cls-4" cx="137.1" cy="75.65" r="4.5"/><circle class="cls-4" cx="196.1" cy="75.65" r="4.5"/><g><polyline class="cls-6" points="67.1 115.15 79.1 76.15 91.79 115.15"/><line class="cls-6" x1="79.5" y1="115.15" x2="79.1" y2="76.15"/></g><circle class="cls-4" cx="79.1" cy="75.65" r="4.5"/><g><polyline class="cls-6" points="440.1 117.15 452.1 78.15 464.79 117.15"/><line class="cls-6" x1="452.5" y1="117.15" x2="452.1" y2="78.15"/></g><g><polyline class="cls-6" points="499.1 117.15 511.1 78.15 523.79 117.15"/><line class="cls-6" x1="511.5" y1="117.15" x2="511.1" y2="78.15"/></g><circle class="cls-4" cx="452.1" cy="77.65" r="4.5"/><circle class="cls-4" cx="511.1" cy="77.65" r="4.5"/><g><polyline class="cls-6" points="382.1 117.15 394.1 78.15 406.79 117.15"/><line class="cls-6" x1="394.5" y1="117.15" x2="394.1" y2="78.15"/></g><circle class="cls-4" cx="394.1" cy="77.65" r="4.5"/><circle class="cls-4" cx="316.1" cy="76.65" r="4.5"/><circle class="cls-4" cx="355.1" cy="76.65" r="4.5"/><circle class="cls-4" cx="238.1" cy="76.65" r="4.5"/><circle class="cls-4" cx="277.1" cy="76.65" r="4.5"/><circle class="cls-4" cx="295.91" cy="39.35" r="4.5"/><rect class="cls-3" x="1.41" y="33.85" width="58" height="8"/><text class="cls-7" transform="translate(3.84 40.65)"><tspan x="0" y="0">superblock</tspan></text><rect class="cls-5" x=".41" y="71.85" width="60" height="8"/><text class="cls-7" transform="translate(.84 78.65)"><tspan x="0" y="0">housegroups</tspan></text><rect class="cls-2" x="1.41" y="107.85" width="36" height="8"/><text class="cls-7" transform="translate(2.84 114.65)"><tspan x="0" y="0">houses</tspan></text></g></svg>