<?xml version="1.0" encoding="UTF-8"?><svg id="Layer_2" xmlns="http://www.w3.org/2000/svg" viewBox="0 0 219.01 167"><defs><style>.cls-1{letter-spacing:-.04em;}.cls-2,.cls-3{fill:#fff;}.cls-2,.cls-3,.cls-4{stroke:#000;}.cls-2,.cls-4{stroke-linecap:square;stroke-linejoin:bevel;stroke-width:1.72px;}.cls-5{letter-spacing:-.03em;}.cls-6{letter-spacing:-.05em;}.cls-7,.cls-8{font-family:ABCDiatypeSemi-MonoVariableUnlicensedTrial-Regular, 'ABC Diatype Semi-Mono Variable Unlicensed Trial';font-size:9px;font-variation-settings:'wght' 400, 'ital' 0;}.cls-7,.cls-9{letter-spacing:-.03em;}.cls-10{letter-spacing:-.04em;}.cls-3{stroke-miterlimit:10;stroke-width:.87px;}.cls-11{letter-spacing:-.04em;}.cls-4{fill:none;}.cls-12{letter-spacing:-.04em;}.cls-13{letter-spacing:-.03em;}</style></defs><g id="Layer_2-2"><polyline class="cls-4" points="11.47 164.79 28.01 102.79 98.01 22.79"/><polyline class="cls-4" points="32.96 164.79 28.01 102.79 19.46 164.79"/><polyline class="cls-4" points="56.28 164.79 28.01 102.79 39.95 164.79"/><polyline class="cls-4" points="78.27 164.79 28.01 102.79 71.44 164.79"/><polyline class="cls-4" points="96.42 164.79 28.01 102.79 87.76 164.79"/><polyline class="cls-4" points="29.52 164.79 70.26 102.29 105.26 24.79"/><polyline class="cls-4" points="68.95 164.79 70.26 102.29 43.53 164.79"/><polyline class="cls-4" points="82.79 164.79 70.26 102.29 75.95 164.79"/><polyline class="cls-4" points="118.15 164.79 70.26 102.29 109.02 164.79 156.48 102.79 91.27 164.79 70.26 102.29 100.23 164.79"/><polyline class="cls-4" points="126.35 164.79 155.76 102.29 137.76 164.79 70.26 102.29 128.57 164.79 198.51 102.29 127.01 21.79"/><polyline class="cls-4" points="153.01 164.79 70.26 102.29 145.84 164.79 156.48 102.79 171.01 163.79"/><polyline class="cls-4" points="163.44 164.79 70.26 102.29 174.56 164.79 198.51 102.29"/><polyline class="cls-4" points="132.38 164.79 113.01 102.79 112.51 25.79"/><polyline class="cls-4" points="105.26 164.79 113.01 102.79 86.24 164.79"/><circle class="cls-2" cx="27.51" cy="102.29" r="4.5"/><circle class="cls-2" cx="70.26" cy="102.29" r="4.5"/><circle class="cls-2" cx="113.01" cy="102.29" r="4.5"/><polyline class="cls-4" points="58.88 164.79 155.01 101.79 68.01 165.79"/><polyline class="cls-4" points="76.94 164.79 155.76 102.29 119.76 24.79"/><polyline class="cls-4" points="98.79 164.79 155.76 102.29 84.4 164.79"/><polyline class="cls-4" points="150.01 163.79 198.51 102.29 141.41 164.79"/><polyline class="cls-4" points="166.34 164.79 198.51 102.29 158.03 164.79"/><polyline class="cls-4" points="194.01 164.79 198.51 102.29 184.51 164.79"/><polyline class="cls-4" points="211.29 164.79 198.51 102.29 202.37 164.79"/><circle class="cls-2" cx="155.76" cy="102.29" r="4.5"/><circle class="cls-2" cx="198.51" cy="102.29" r="4.5"/><g><line class="cls-4" x1="71.01" y1="41.79" x2="70.04" y2="92.82"/><polygon points="67.18 89.33 70.05 92.31 73.03 89.44 72.98 91.93 70.01 94.79 67.14 91.82 67.18 89.33"/></g><text class="cls-8" transform="translate(35.43 7.65)"><tspan class="cls-6" x="0" y="0">W</tspan><tspan class="cls-5" x="6.62" y="0">a</tspan><tspan class="cls-13" x="11.3" y="0">t</tspan><tspan class="cls-9" x="15.17" y="0">ermelon </tspan><tspan class="cls-12" x="51.81" y="0">R</tspan><tspan class="cls-9" x="57.19" y="0">oad </tspan><tspan class="cls-9"><tspan x="7.48" y="7">neighborhood</tspan></tspan><tspan class="cls-9" x="16.94" y="14">boundar</tspan><tspan class="cls-1" x="50.4" y="14">y</tspan></text><rect class="cls-3" x="4.51" y="77.29" width="34" height="16"/><rect class="cls-3" x="96.51" y="77.32" width="34" height="16"/><rect class="cls-3" x="135.51" y="80.29" width="34" height="10"/><rect class="cls-3" x="180.51" y="80.29" width="34" height="10"/><text class="cls-8" transform="translate(12.14 84.65)"><tspan class="cls-9" x="0" y="0">po</tspan><tspan class="cls-13" x="9.97" y="0">s</tspan><tspan class="cls-9" x="14.54" y="0">t </tspan><tspan class="cls-11" x="-3.73" y="7">o</tspan><tspan class="cls-9" x="1.17" y="7">ffice</tspan></text><text class="cls-8" transform="translate(100.79 84.65)"><tspan class="cls-10" x="0" y="0">y</tspan><tspan class="cls-9" x="4.54" y="0">outh </tspan><tspan class="cls-11" x="-1.37" y="7">o</tspan><tspan class="cls-9" x="3.52" y="7">ffice</tspan></text><text class="cls-7"><tspan x="137.53" y="88.45">school</tspan></text><text class="cls-7"><tspan x="186.37" y="88.45">adult</tspan></text><line class="cls-3" x1="88.01" y1="30.29" x2="54.01" y2="30.29"/></g></svg>