<?xml version="1.0" encoding="UTF-8"?><svg id="Layer_2" xmlns="http://www.w3.org/2000/svg" viewBox="0 0 402.13 150.21"><defs><style>.cls-1{stroke-linecap:square;stroke-linejoin:bevel;}.cls-1,.cls-2,.cls-3,.cls-4,.cls-5,.cls-6{stroke:#000;}.cls-1,.cls-4{fill:none;}.cls-2{stroke-width:.87px;}.cls-2,.cls-3,.cls-4,.cls-5,.cls-6{stroke-miterlimit:10;}.cls-2,.cls-3,.cls-5,.cls-6{fill:#fff;}.cls-7{font-family:ABCDiatypeMonoUnlicensedTrial-Regular, 'ABC Diatype Mono Unlicensed Trial';font-size:9px;}.cls-5{stroke-width:.72px;}.cls-6{stroke-width:.66px;}</style></defs><g id="Layer_2-2"><g><polyline class="cls-4" points="82.56 115.35 94.56 76.35 107.26 115.35"/><line class="cls-4" x1="94.96" y1="115.35" x2="94.56" y2="76.35"/></g><g><polyline class="cls-4" points="372.35 115.82 384.35 76.82 397.04 115.82"/><line class="cls-4" x1="384.75" y1="115.82" x2="384.35" y2="76.82"/></g><circle cx="396.85" cy="116.07" r="2.75"/><circle cx="384.85" cy="116.07" r="2.75"/><circle cx="372.85" cy="116.07" r="2.75"/><g><polyline class="cls-4" points="333.35 115.82 345.35 76.82 358.04 115.82"/><line class="cls-4" x1="345.75" y1="115.82" x2="345.35" y2="76.82"/></g><circle cx="357.85" cy="116.07" r="2.75"/><circle cx="345.85" cy="116.07" r="2.75"/><circle cx="333.85" cy="116.07" r="2.75"/><g><polyline class="cls-4" points="294.35 115.82 306.35 76.82 319.04 115.82"/><line class="cls-4" x1="306.75" y1="115.82" x2="306.35" y2="76.82"/></g><circle cx="318.85" cy="116.07" r="2.75"/><circle cx="306.85" cy="116.07" r="2.75"/><circle cx="294.85" cy="116.07" r="2.75"/><g><polyline class="cls-4" points="255.35 115.82 267.35 76.82 280.04 115.82"/><line class="cls-4" x1="267.75" y1="115.82" x2="267.35" y2="76.82"/></g><circle cx="279.85" cy="116.07" r="2.75"/><circle cx="267.85" cy="116.07" r="2.75"/><circle cx="255.85" cy="116.07" r="2.75"/><g><polyline class="cls-4" points="121.56 115.35 133.56 76.35 146.26 115.35"/><line class="cls-4" x1="133.96" y1="115.35" x2="133.56" y2="76.35"/></g><rect class="cls-2" x="176.56" y=".85" width="45" height="8"/><text class="cls-7" transform="translate(176.99 7.65)"><tspan x="0" y="0">new town </tspan></text><line class="cls-4" x1="325.06" y1="37.35" x2="198.06" y2="15.35"/><polyline class="cls-4" points="16.37 75.85 75.06 37.35 198.06 15.35"/><polyline class="cls-4" points="93.98 75.85 75.06 37.35 133.24 75.85"/><line class="cls-4" x1="54.72" y1="75.85" x2="75.06" y2="37.35"/><polyline class="cls-4" points="345.1 75.56 326.18 37.06 384.36 75.56"/><polyline class="cls-4" points="264.26 75.85 326.18 37.06 305.84 75.56"/><circle class="cls-3" cx="198.06" cy="16.35" r="4.5"/><circle class="cls-3" cx="74.56" cy="36.85" r="4.5"/><circle class="cls-3" cx="326.56" cy="36.85" r="4.5"/><circle class="cls-3" cx="94.56" cy="75.85" r="4.5"/><circle class="cls-3" cx="133.56" cy="75.85" r="4.5"/><circle cx="146.06" cy="115.6" r="2.75"/><circle cx="134.06" cy="115.6" r="2.75"/><circle cx="122.06" cy="115.6" r="2.75"/><circle cx="107.06" cy="115.6" r="2.75"/><circle cx="95.06" cy="115.6" r="2.75"/><circle cx="83.06" cy="115.6" r="2.75"/><g><polyline class="cls-4" points="43.56 115.35 55.56 76.35 68.26 115.35"/><line class="cls-4" x1="55.96" y1="115.35" x2="55.56" y2="76.35"/></g><circle cx="68.06" cy="115.6" r="2.75"/><circle cx="56.06" cy="115.6" r="2.75"/><circle cx="44.06" cy="115.6" r="2.75"/><g><polyline class="cls-4" points="4.56 115.35 16.56 76.35 29.26 115.35"/><line class="cls-4" x1="16.96" y1="115.35" x2="16.56" y2="76.35"/></g><circle cx="29.06" cy="115.6" r="2.75"/><circle cx="17.06" cy="115.6" r="2.75"/><circle cx="5.06" cy="115.6" r="2.75"/><circle class="cls-3" cx="16.56" cy="75.85" r="4.5"/><circle class="cls-3" cx="55.56" cy="75.85" r="4.5"/><circle class="cls-3" cx="345.56" cy="75.85" r="4.5"/><circle class="cls-3" cx="384.56" cy="75.85" r="4.5"/><circle class="cls-3" cx="267.56" cy="75.85" r="4.5"/><circle class="cls-3" cx="306.56" cy="75.85" r="4.5"/><g><polyline class="cls-1" points="51.56 147.85 56.06 115.6 60.56 147.85"/><line class="cls-1" x1="55.96" y1="147.85" x2="56.06" y2="115.6"/></g><g><polyline class="cls-1" points="39.56 147.85 44.06 115.6 48.56 147.85"/><line class="cls-1" x1="43.96" y1="147.85" x2="44.06" y2="115.6"/></g><g><polyline class="cls-1" points="63.56 147.85 68.06 115.6 72.56 147.85"/><line class="cls-1" x1="67.96" y1="147.85" x2="68.06" y2="115.6"/></g><g><polyline class="cls-1" points="12.56 147.85 17.06 115.6 21.56 147.85"/><line class="cls-1" x1="16.96" y1="147.85" x2="17.06" y2="115.6"/></g><g><polyline class="cls-1" points=".56 147.85 5.06 115.6 9.56 147.85"/><line class="cls-1" x1="4.96" y1="147.85" x2="5.06" y2="115.6"/></g><g><polyline class="cls-1" points="24.56 147.85 29.06 115.6 33.56 147.85"/><line class="cls-1" x1="28.96" y1="147.85" x2="29.06" y2="115.6"/></g><g><polyline class="cls-1" points="129.56 147.85 134.06 115.6 138.56 147.85"/><line class="cls-1" x1="133.96" y1="147.85" x2="134.06" y2="115.6"/></g><g><polyline class="cls-1" points="117.56 147.85 122.06 115.6 126.56 147.85"/><line class="cls-1" x1="121.96" y1="147.85" x2="122.06" y2="115.6"/></g><g><polyline class="cls-1" points="141.56 147.85 146.06 115.6 150.56 147.85"/><line class="cls-1" x1="145.96" y1="147.85" x2="146.06" y2="115.6"/></g><g><polyline class="cls-1" points="90.56 147.85 95.06 115.6 99.56 147.85"/><line class="cls-1" x1="94.96" y1="147.85" x2="95.06" y2="115.6"/></g><g><polyline class="cls-1" points="78.56 147.85 83.06 115.6 87.56 147.85"/><line class="cls-1" x1="82.96" y1="147.85" x2="83.06" y2="115.6"/></g><g><polyline class="cls-1" points="102.56 147.85 107.06 115.6 111.56 147.85"/><line class="cls-1" x1="106.96" y1="147.85" x2="107.06" y2="115.6"/></g><g><polyline class="cls-1" points="302.56 147.85 307.06 115.6 311.56 147.85"/><line class="cls-1" x1="306.96" y1="147.85" x2="307.06" y2="115.6"/></g><g><polyline class="cls-1" points="290.56 147.85 295.06 115.6 299.56 147.85"/><line class="cls-1" x1="294.96" y1="147.85" x2="295.06" y2="115.6"/></g><g><polyline class="cls-1" points="314.56 147.85 319.06 115.6 323.56 147.85"/><line class="cls-1" x1="318.96" y1="147.85" x2="319.06" y2="115.6"/></g><g><polyline class="cls-1" points="263.56 147.85 268.06 115.6 272.56 147.85"/><line class="cls-1" x1="267.96" y1="147.85" x2="268.06" y2="115.6"/></g><g><polyline class="cls-1" points="251.56 147.85 256.06 115.6 260.56 147.85"/><line class="cls-1" x1="255.96" y1="147.85" x2="256.06" y2="115.6"/></g><g><polyline class="cls-1" points="275.56 147.85 280.06 115.6 284.56 147.85"/><line class="cls-1" x1="279.96" y1="147.85" x2="280.06" y2="115.6"/></g><g><polyline class="cls-1" points="380.56 147.85 385.06 115.6 389.56 147.85"/><line class="cls-1" x1="384.96" y1="147.85" x2="385.06" y2="115.6"/></g><g><polyline class="cls-1" points="368.56 147.85 373.06 115.6 377.56 147.85"/><line class="cls-1" x1="372.96" y1="147.85" x2="373.06" y2="115.6"/></g><g><polyline class="cls-1" points="392.56 147.85 397.06 115.6 401.56 147.85"/><line class="cls-1" x1="396.96" y1="147.85" x2="397.06" y2="115.6"/></g><g><polyline class="cls-1" points="341.56 147.85 346.06 115.6 350.56 147.85"/><line class="cls-1" x1="345.96" y1="147.85" x2="346.06" y2="115.6"/></g><g><polyline class="cls-1" points="329.56 147.85 334.06 115.6 338.56 147.85"/><line class="cls-1" x1="333.96" y1="147.85" x2="334.06" y2="115.6"/></g><g><polyline class="cls-1" points="353.56 147.85 358.06 115.6 362.56 147.85"/><line class="cls-1" x1="357.96" y1="147.85" x2="358.06" y2="115.6"/></g><rect class="cls-6" x="312.56" y="21.85" width="26" height="8"/><text class="cls-7" transform="translate(314.99 28.65)"><tspan x="0" y="0">loop</tspan></text><rect class="cls-6" x="61.56" y="21.85" width="26" height="8"/><text class="cls-7" transform="translate(63.99 28.65)"><tspan x="0" y="0">loop</tspan></text><rect class="cls-5" x="176.56" y="71.85" width="45" height="8"/><text class="cls-7" transform="translate(176.99 78.65)"><tspan x="0" y="0">villages</tspan></text><rect class="cls-5" x="182.56" y="102.85" width="31" height="8"/><text class="cls-7" transform="translate(183.99 109.65)"><tspan x="0" y="0">petal</tspan></text><rect class="cls-5" x="161.56" y="115.85" width="73" height="8"/><text class="cls-7" transform="translate(162.99 122.65)"><tspan x="0" y="0">neighborhoods</tspan></text><rect class="cls-5" x="176.56" y="140.85" width="45" height="8"/><text class="cls-7" transform="translate(180.99 147.65)"><tspan x="0" y="0">houses</tspan></text></g></svg>