<?xml version="1.0" encoding="UTF-8"?><svg id="Layer_2" xmlns="http://www.w3.org/2000/svg" viewBox="0 0 320.87 169.71"><defs><style>.cls-1{letter-spacing:-.04em;}.cls-2{fill:none;}.cls-2,.cls-3,.cls-4{stroke:#000;stroke-miterlimit:10;}.cls-2,.cls-4{stroke-width:1.72px;}.cls-5{letter-spacing:-.03em;}.cls-6{font-family:ABCDiatypeSemi-MonoVariableUnlicensedTrial-Regular, 'ABC Diatype Semi-Mono Variable Unlicensed Trial';font-size:9px;font-variation-settings:'wght' 400, 'ital' 0;}.cls-7{letter-spacing:-.04em;}.cls-8{letter-spacing:-.04em;}.cls-3{stroke-width:.87px;}.cls-3,.cls-4{fill:#fff;}.cls-9{letter-spacing:-.03em;}.cls-10{letter-spacing:-.04em;}.cls-11{letter-spacing:-.04em;}.cls-12{letter-spacing:-.03em;}.cls-13{letter-spacing:-.03em;}</style></defs><g id="Layer_2-2"><polyline class="cls-2" points="29.99 133.7 120.33 42.2 158.18 3.86 291.05 134.61"/><line class="cls-2" x1="158.93" y1="130.86" x2="102.33" y2="60.2"/><line class="cls-2" x1="158.93" y1="130.86" x2="219.93" y2="60.2"/><circle class="cls-4" cx="30.8" cy="131.06" r="4.5"/><circle class="cls-4" cx="219.43" cy="60.36" r="4.5"/><circle class="cls-4" cx="101.43" cy="60.36" r="4.5"/><circle class="cls-4" cx="158.93" cy="130.36" r="4.5"/><circle class="cls-4" cx="158.93" cy="5.36" r="4.5"/><circle class="cls-4" cx="290.43" cy="131.36" r="4.5"/><rect class="cls-3" x="71.43" y="40.36" width="60" height="9"/><text class="cls-6" transform="translate(83.67 47.73)"><tspan class="cls-12" x="0" y="0">indu</tspan><tspan class="cls-13" x="18.27" y="0">s</tspan><tspan class="cls-12" x="22.83" y="0">tr</tspan><tspan class="cls-1" x="30.71" y="0">y</tspan></text><rect class="cls-3" x="189.43" y="39.36" width="60" height="9"/><text class="cls-6" transform="translate(195.73 46.73)"><tspan class="cls-11" x="0" y="0">r</tspan><tspan class="cls-12" x="3.92" y="0">eside</tspan><tspan class="cls-5" x="26.69" y="0">n</tspan><tspan class="cls-12" x="31.58" y="0">tial</tspan></text><rect class="cls-3" x="260.43" y="149.36" width="60" height="9"/><text class="cls-6" transform="translate(276.06 156.73)"><tspan class="cls-12" x="0" y="0">ga</tspan><tspan class="cls-7" x="9.74" y="0">r</tspan><tspan class="cls-12" x="13.67" y="0">den</tspan></text><rect class="cls-3" x="127.43" y="146.36" width="60" height="16"/><text class="cls-6" transform="translate(138.59 153.72)"><tspan class="cls-12" x="0" y="0">back</tspan><tspan class="cls-8" x="19.19" y="0">y</tspan><tspan class="cls-12" x="23.72" y="0">a</tspan><tspan class="cls-8" x="28.43" y="0">r</tspan><tspan class="cls-12" x="32.36" y="0">d</tspan><tspan class="cls-12" x="1.08" y="7">indu</tspan><tspan class="cls-13" x="19.35" y="7">s</tspan><tspan class="cls-12" x="23.92" y="7">tr</tspan><tspan class="cls-1" x="31.79" y="7">y</tspan></text><rect class="cls-3" x=".43" y="146.21" width="60" height="16"/><text class="cls-6" transform="translate(18.69 153.57)"><tspan class="cls-12" x="0" y="0">majo</tspan><tspan class="cls-10" x="19.33" y="0">r</tspan><tspan class="cls-12" x="23.2" y="0"> </tspan><tspan class="cls-12" x="-6.01" y="7">indu</tspan><tspan class="cls-13" x="12.26" y="7">s</tspan><tspan class="cls-12" x="16.82" y="7">tr</tspan><tspan class="cls-1" x="24.7" y="7">y</tspan><tspan class="cls-9" x="29.21" y="7"> </tspan></text></g></svg>