<?xml version="1.0" encoding="UTF-8"?><svg id="Layer_2" xmlns="http://www.w3.org/2000/svg" viewBox="0 0 249.5 266.94"><defs><style>.cls-1{stroke-width:.58px;}.cls-1,.cls-2,.cls-3,.cls-4{fill:#fff;}.cls-1,.cls-2,.cls-3,.cls-4,.cls-5{stroke:#000;stroke-miterlimit:10;}.cls-2{stroke-width:.62px;}.cls-3,.cls-5{stroke-width:.5px;}.cls-6{font-family:ABCDiatypeMonoUnlicensedTrial-Regular, 'ABC Diatype Mono Unlicensed Trial';font-size:9px;}.cls-4{stroke-width:.75px;}.cls-5{fill:none;}</style></defs><g id="Layer_2-2"><rect class="cls-3" x="66.44" y="125.69" width="15" height="8"/><text class="cls-6" transform="translate(70.65 132.65)"><tspan x="0" y="0">1</tspan></text><rect class="cls-3" x="66.44" y="208.69" width="15" height="8"/><text class="cls-6" transform="translate(70.65 215.65)"><tspan x="0" y="0">2</tspan></text><rect class="cls-3" x="131.25" y="104.69" width="15" height="8"/><text class="cls-6" transform="translate(135.68 111.65)"><tspan x="0" y="0">3</tspan></text><rect class="cls-3" x="152.25" y="129.69" width="15" height="8"/><text class="cls-6" transform="translate(156.68 136.65)"><tspan x="0" y="0">4</tspan></text><rect class="cls-1" x="151.25" y="57.69" width="20" height="8"/><text class="cls-6" transform="translate(152.68 64.65)"><tspan x="0" y="0">345</tspan></text><rect class="cls-3" x="154.25" y="79.69" width="15" height="8"/><text class="cls-6" transform="translate(158.68 86.65)"><tspan x="0" y="0">5</tspan></text><rect class="cls-3" x="211.25" y="104.69" width="15" height="8"/><text class="cls-6" transform="translate(215.68 111.65)"><tspan x="0" y="0">6</tspan></text><circle class="cls-5" cx="124.75" cy="142.19" r="124.5"/><rect class="cls-4" x="106.25" y=".69" width="34" height="8"/><text class="cls-6" transform="translate(106.68 7.65)"><tspan x="0" y="0">123456</tspan></text><rect class="cls-1" x="114.25" y="225.69" width="20" height="8"/><text class="cls-6" transform="translate(117.68 232.65)"><tspan x="0" y="0">12</tspan></text><circle class="cls-5" cx="73.94" cy="173.69" r="57.5"/><circle class="cls-5" cx="161.25" cy="108.69" r="36.5"/><circle class="cls-5" cx="170.25" cy="100.69" r="62.5"/><rect class="cls-2" x="113.25" y="30.69" width="23" height="8"/><text class="cls-6" transform="translate(113.68 37.65)"><tspan x="0" y="0">3456</tspan></text></g></svg>