<?xml version="1.0" encoding="UTF-8"?><svg id="Layer_2" xmlns="http://www.w3.org/2000/svg" viewBox="0 0 308.81 149.74"><defs><style>.cls-1{fill:none;}.cls-1,.cls-2,.cls-3,.cls-4,.cls-5{stroke:#000;stroke-miterlimit:10;}.cls-1,.cls-4{stroke-width:1.72px;}.cls-2{stroke-width:.87px;}.cls-2,.cls-3,.cls-4,.cls-5{fill:#fff;}.cls-3{stroke-width:.87px;}.cls-6{font-family:ABCDiatypeMonoUnlicensedTrial-Regular, 'ABC Diatype Mono Unlicensed Trial';font-size:9px;}.cls-5{stroke-width:.75px;}</style></defs><g id="Layer_2-2"><rect class="cls-3" x="247.96" y="140.15" width="60.41" height="8"/><text class="cls-6" transform="translate(248.4 146.94)"><tspan x="0" y="0">tennis ball</tspan></text><rect class="cls-2" x="93.25" y="140.36" width="54.76" height="8"/><text class="cls-6" transform="translate(93.69 147.15)"><tspan x="0" y="0">watermelon</tspan></text><polyline class="cls-1" points="17.51 135.7 107.85 44.2 145.7 5.86 278.57 136.61"/><line class="cls-1" x1="126.45" y1="136.86" x2="71.85" y2="80.2"/><line class="cls-1" x1="171.45" y1="136.86" x2="223.98" y2="82.57"/><rect class="cls-3" x=".43" y="140.38" width="33.55" height="8"/><text class="cls-6" transform="translate(.86 147.19)"><tspan x="0" y="0">orange</tspan></text><rect class="cls-2" x="150.95" y="140.36" width="45" height="8"/><text class="cls-6" transform="translate(151.39 147.16)"><tspan x="0" y="0">football</tspan></text><circle class="cls-4" cx="18.32" cy="133.06" r="4.5"/><circle class="cls-4" cx="173.95" cy="133.36" r="4.5"/><circle class="cls-4" cx="223.95" cy="82.36" r="4.5"/><circle class="cls-4" cx="71.95" cy="81.36" r="4.5"/><circle class="cls-4" cx="145.95" cy="5.36" r="4.5"/><circle class="cls-4" cx="122.95" cy="133.36" r="4.5"/><circle class="cls-4" cx="277.95" cy="133.36" r="4.5"/><rect class="cls-5" x="53.95" y="57.36" width="42" height="8"/><rect class="cls-5" x="205.95" y="57.36" width="36" height="8"/><text class="cls-6" transform="translate(59.11 64.1)"><tspan x="0" y="0">fruit</tspan></text><text class="cls-6" transform="translate(212.39 64.95)"><tspan x="0" y="0">ball</tspan></text></g></svg>