<?xml version="1.0" encoding="UTF-8"?><svg id="Layer_2" xmlns="http://www.w3.org/2000/svg" viewBox="0 0 217.87 165.87"><defs><style>.cls-1{letter-spacing:-.04em;}.cls-2{letter-spacing:-.04em;}.cls-3{letter-spacing:-.04em;}.cls-4{fill:none;}.cls-4,.cls-5,.cls-6{stroke:#000;stroke-miterlimit:10;}.cls-4,.cls-6{stroke-width:1.72px;}.cls-7{letter-spacing:-.03em;}.cls-8,.cls-9{font-family:ABCDiatypeSemi-MonoVariableUnlicensedTrial-Regular, 'ABC Diatype Semi-Mono Variable Unlicensed Trial';font-size:6px;font-variation-settings:'wght' 400, 'ital' 0;}.cls-10{letter-spacing:-.04em;}.cls-5{stroke-width:.87px;}.cls-5,.cls-6{fill:#fff;}.cls-11{letter-spacing:-.04em;}.cls-12{letter-spacing:-.03em;}.cls-13{letter-spacing:-.04em;}.cls-9,.cls-14{letter-spacing:-.03em;}.cls-15{letter-spacing:-.03em;}.cls-16{letter-spacing:-.03em;}.cls-17{letter-spacing:-.03em;}.cls-18{letter-spacing:-.03em;}</style></defs><g id="Layer_2-2"><polyline class="cls-4" points="18.93 146.93 35.93 78.93 55.93 46.93 109.18 17.93 159.93 47.93 178.93 78.93 207.93 146.93"/><line class="cls-4" x1="132.93" y1="145.93" x2="70.93" y2="78.93"/><line class="cls-4" x1="82.93" y1="143.93" x2="35.93" y2="78.93"/><line class="cls-4" x1="83.93" y1="144.93" x2="142.93" y2="78.93"/><line class="cls-4" x1="20.93" y1="146.93" x2="70.93" y2="78.93"/><circle class="cls-6" cx="20.43" cy="146.43" r="4.5"/><circle class="cls-6" cx="35.43" cy="78.43" r="4.5"/><circle class="cls-6" cx="109.43" cy="17.43" r="4.5"/><circle class="cls-6" cx="84.43" cy="146.43" r="4.5"/><polyline class="cls-4" points="71.18 78.43 54.43 47.43 106.93 78.43 160.43 47.43 142.68 78.43 207.93 146.93"/><polyline class="cls-4" points="169.93 146.93 151.93 112.93 132.43 145.43"/><polyline class="cls-4" points="52.93 145.93 106.93 78.43 152.93 112.93 178.43 78.43"/><circle class="cls-6" cx="132.43" cy="146.43" r="4.5"/><circle class="cls-6" cx="169.93" cy="146.43" r="4.5"/><circle class="cls-6" cx="142.68" cy="78.43" r="4.5"/><circle class="cls-6" cx="178.43" cy="78.43" r="4.5"/><circle class="cls-6" cx="151.43" cy="112.43" r="4.5"/><circle class="cls-6" cx="160.43" cy="47.43" r="4.5"/><circle class="cls-6" cx="54.43" cy="47.43" r="4.5"/><circle class="cls-6" cx="71.18" cy="78.43" r="4.5"/><circle class="cls-6" cx="106.93" cy="78.43" r="4.5"/><circle class="cls-6" cx="52.43" cy="146.43" r="4.5"/><circle class="cls-6" cx="207.43" cy="146.43" r="4.5"/><rect class="cls-5" x="92.43" y=".43" width="34" height="9"/><text class="cls-9" transform="translate(94.69 6.7)"><tspan x="0" y="0">Cambridge</tspan></text><rect class="cls-5" x="151.43" y="30.43" width="19" height="8"/><text class="cls-8" transform="translate(154.75 35.7)"><tspan class="cls-14" x="0" y="0">ci</tspan><tspan class="cls-18" x="5.53" y="0">t</tspan><tspan class="cls-1" x="8.15" y="0">y</tspan></text><rect class="cls-5" x=".43" y="154.43" width="29" height="7"/><text class="cls-9" transform="translate(3.87 159.7)"><tspan x="0" y="0">college</tspan></text><rect class="cls-5" x="122.43" y="154.43" width="21" height="7"/><rect class="cls-5" x="196.43" y="154.43" width="21" height="7"/><text class="cls-9" transform="translate(127.5 159.7)"><tspan x="0" y="0">bus</tspan></text><text class="cls-8" transform="translate(198.19 159.7)"><tspan class="cls-17" x="0" y="0">s</tspan><tspan class="cls-14" x="3.04" y="0">t</tspan><tspan class="cls-13" x="5.64" y="0">r</tspan><tspan class="cls-14" x="8.26" y="0">e</tspan><tspan class="cls-17" x="11.48" y="0">e</tspan><tspan class="cls-15" x="14.69" y="0">t</tspan></text><rect class="cls-5" x="37.43" y="30.43" width="34" height="9"/><text class="cls-8" transform="translate(39.96 36.7)"><tspan class="cls-14" x="0" y="0">uni</tspan><tspan class="cls-10" x="8.83" y="0">v</tspan><tspan class="cls-14" x="11.87" y="0">e</tspan><tspan class="cls-7" x="15.1" y="0">r</tspan><tspan class="cls-16" x="17.74" y="0">si</tspan><tspan class="cls-12" x="23.11" y="0">t</tspan><tspan class="cls-3" x="25.73" y="0">y</tspan></text><rect class="cls-5" x="35.43" y="153.43" width="33" height="12"/><text class="cls-8" transform="translate(39.49 158.69)"><tspan class="cls-14" x="0" y="0">boa</tspan><tspan class="cls-10" x="9.79" y="0">r</tspan><tspan class="cls-14" x="12.41" y="0">ding</tspan><tspan class="cls-14"><tspan x="2.77" y="5">houses</tspan></tspan></text><rect class="cls-5" x="72.43" y="153.38" width="28" height="12.05"/><rect class="cls-5" x="156.43" y="153.38" width="24" height="12.05"/><text class="cls-9" transform="translate(74.99 158.64)"><tspan x="0" y="0">medical </tspan><tspan x="1.63" y="5">school</tspan></text><text class="cls-8" transform="translate(159.26 158.69)"><tspan class="cls-14" x="0" y="0">c</tspan><tspan class="cls-2" x="3.22" y="0">o</tspan><tspan class="cls-11" x="6.48" y="0">ff</tspan><tspan class="cls-14" x="11.69" y="0">ee</tspan><tspan class="cls-14"><tspan x="1.05" y="5">shops</tspan></tspan></text></g></svg>