<?xml version="1.0" encoding="UTF-8"?><svg id="Layer_2" xmlns="http://www.w3.org/2000/svg" viewBox="0 0 266.33 139.93"><defs><style>.cls-1{letter-spacing:-.04em;}.cls-2{stroke-width:.87px;}.cls-2,.cls-3,.cls-4,.cls-5,.cls-6,.cls-7{stroke:#000;}.cls-2,.cls-3,.cls-6{stroke-linecap:square;stroke-linejoin:bevel;}.cls-2,.cls-4,.cls-7{fill:#fff;}.cls-8{letter-spacing:-.09em;}.cls-9{letter-spacing:-.03em;}.cls-10{letter-spacing:-.05em;}.cls-3,.cls-5{fill:none;}.cls-11{font-size:6px;}.cls-11,.cls-12{font-family:ABCDiatypeMonoUnlicensedTrial-Regular, 'ABC Diatype Mono Unlicensed Trial';}.cls-13{font-family:ABCDiatypeSemi-MonoVariableUnlicensedTrial-Regular, 'ABC Diatype Semi-Mono Variable Unlicensed Trial';font-variation-settings:'wght' 400, 'ital' 0;}.cls-13,.cls-12{font-size:9px;}.cls-14{letter-spacing:-.04em;}.cls-15{letter-spacing:-.04em;}.cls-4,.cls-5,.cls-7{stroke-miterlimit:10;}.cls-16{letter-spacing:-.03em;}.cls-7{stroke-width:.66px;}</style></defs><g id="Layer_2-2"><rect class="cls-2" x="125.83" y=".43" width="51" height="9"/><text class="cls-13" transform="translate(129.46 7.8)"><tspan class="cls-15" x="0" y="0">N</tspan><tspan class="cls-9" x="5.81" y="0">e</tspan><tspan class="cls-1" x="10.64" y="0">w</tspan><tspan class="cls-10" x="16.52" y="0"> </tspan><tspan class="cls-8" x="19.84" y="0">T</tspan><tspan class="cls-16" x="24.44" y="0">ok</tspan><tspan class="cls-14" x="33.98" y="0">y</tspan><tspan class="cls-16" x="38.52" y="0">o</tspan></text><g><polyline class="cls-5" points="158.51 96.41 170.51 57.41 183.2 96.41"/><line class="cls-5" x1="170.91" y1="96.41" x2="170.51" y2="57.41"/></g><g><polyline class="cls-5" points="197.51 96.41 209.51 57.41 222.2 96.41"/><line class="cls-5" x1="209.91" y1="96.41" x2="209.51" y2="57.41"/></g><line class="cls-5" x1="92.32" y1="56.91" x2="151.01" y2="18.41"/><polyline class="cls-5" points="169.93 56.91 151.01 18.41 209.19 56.91"/><line class="cls-5" x1="130.67" y1="56.91" x2="151.01" y2="18.41"/><circle class="cls-4" cx="150.51" cy="17.91" r="4.5"/><circle class="cls-4" cx="170.51" cy="56.91" r="4.5"/><circle class="cls-4" cx="209.51" cy="56.91" r="4.5"/><circle cx="222.01" cy="96.66" r="2.75"/><circle cx="210.01" cy="96.66" r="2.75"/><circle cx="198.01" cy="96.66" r="2.75"/><circle cx="183.01" cy="96.66" r="2.75"/><circle cx="171.01" cy="96.66" r="2.75"/><circle cx="159.01" cy="96.66" r="2.75"/><g><polyline class="cls-5" points="119.51 96.41 131.51 57.41 144.2 96.41"/><line class="cls-5" x1="131.91" y1="96.41" x2="131.51" y2="57.41"/></g><circle cx="144.01" cy="96.66" r="2.75"/><circle cx="132.01" cy="96.66" r="2.75"/><circle cx="120.01" cy="96.66" r="2.75"/><g><polyline class="cls-5" points="80.51 96.41 92.51 57.41 105.2 96.41"/><line class="cls-5" x1="92.91" y1="96.41" x2="92.51" y2="57.41"/></g><circle cx="105.01" cy="96.66" r="2.75"/><circle cx="93.01" cy="96.66" r="2.75"/><circle cx="81.01" cy="96.66" r="2.75"/><circle class="cls-4" cx="92.51" cy="56.91" r="4.5"/><circle class="cls-4" cx="131.51" cy="56.91" r="4.5"/><g><polygon class="cls-6" points="127.51 128.91 132.01 96.66 136.51 128.91 127.51 128.91"/><line class="cls-6" x1="131.91" y1="128.91" x2="132.01" y2="96.66"/></g><g><polyline class="cls-3" points="115.51 128.91 120.01 96.66 124.51 128.91"/><line class="cls-3" x1="119.91" y1="128.91" x2="120.01" y2="96.66"/></g><g><polygon class="cls-6" points="139.51 128.91 144.01 96.66 148.51 128.91 139.51 128.91"/><line class="cls-6" x1="143.91" y1="128.91" x2="144.01" y2="96.66"/></g><g><polyline class="cls-3" points="88.51 128.91 93.01 96.66 97.51 128.91"/><line class="cls-3" x1="92.91" y1="128.91" x2="93.01" y2="96.66"/></g><g><polyline class="cls-3" points="76.51 128.91 81.01 96.66 85.51 128.91"/><line class="cls-3" x1="80.91" y1="128.91" x2="81.01" y2="96.66"/></g><g><polygon class="cls-6" points="109.51 128.91 105.01 96.66 100.51 128.91 109.51 128.91"/><line class="cls-6" x1="104.91" y1="128.91" x2="105.01" y2="96.66"/></g><g><polyline class="cls-3" points="205.51 128.91 210.01 96.66 214.51 128.91"/><line class="cls-3" x1="209.91" y1="128.91" x2="210.01" y2="96.66"/></g><g><polyline class="cls-3" points="193.51 128.91 198.01 96.66 202.51 128.91"/><line class="cls-3" x1="197.91" y1="128.91" x2="198.01" y2="96.66"/></g><g><polygon class="cls-6" points="217.51 128.91 222.01 96.66 226.51 128.91 217.51 128.91"/><line class="cls-3" x1="221.91" y1="128.91" x2="222.01" y2="96.66"/></g><g><polyline class="cls-3" points="166.51 128.91 171.01 96.66 175.51 128.91"/><line class="cls-3" x1="170.91" y1="128.91" x2="171.01" y2="96.66"/></g><g><polyline class="cls-3" points="154.51 128.91 159.01 96.66 163.51 128.91"/><line class="cls-3" x1="158.91" y1="128.91" x2="159.01" y2="96.66"/></g><g><polyline class="cls-3" points="178.51 128.91 183.01 96.66 187.51 128.91"/><line class="cls-3" x1="182.91" y1="128.91" x2="183.01" y2="96.66"/></g><rect class="cls-7" x=".33" y="51.43" width="63.5" height="8"/><text class="cls-12" transform="translate(5.33 58.23)"><tspan x="0" y="0">Major loop</tspan></text><rect class="cls-7" x=".33" y="92.43" width="63.5" height="8"/><text class="cls-12" transform="translate(2.33 99.23)"><tspan x="0" y="0">Medium loop</tspan></text><rect class="cls-7" x=".33" y="124.43" width="63.5" height="8"/><text class="cls-12" transform="translate(5.33 131.23)"><tspan x="0" y="0">Minor loop</tspan></text><rect class="cls-7" x="191.33" y="132.43" width="50.5" height="6"/><text class="cls-11" transform="translate(193.33 137.13)"><tspan x="0" y="0">neighborhoods</tspan></text><rect class="cls-7" x="111.83" y="132.43" width="44" height="6"/><text class="cls-11" transform="translate(112.33 137.13)"><tspan x="0" y="0">station port</tspan></text><rect class="cls-7" x="159.83" y="132.43" width="26" height="6"/><text class="cls-11" transform="translate(162.33 137.13)"><tspan x="0" y="0">office</tspan></text></g></svg>