<?xml version="1.0" encoding="UTF-8"?><svg id="Layer_2" xmlns="http://www.w3.org/2000/svg" viewBox="0 0 159 152"><defs><style>.cls-1{fill:#fff;}.cls-1,.cls-2{stroke:#000;stroke-miterlimit:10;}.cls-2{fill:none;}</style></defs><g id="Layer_2-2"><circle class="cls-2" cx="80.12" cy="80.25" r="21"/><polyline class="cls-2" points="73.63 80 80 7 86.62 80"/><polyline class="cls-2" points="81.62 73.88 154.62 80.25 81.62 86.87"/><polyline class="cls-2" points="79.62 73.88 6.62 80.25 79.62 86.87"/><polyline class="cls-2" points="74.68 77.15 45.73 144.47 86.13 83.3"/><polyline class="cls-2" points="86.17 78.15 115.13 145.47 74.73 84.3"/><polyline class="cls-2" points="74.45 84 38.34 20.24 85.16 76.63"/><polyline class="cls-2" points="85.04 84 121.16 20.24 74.34 76.63"/><circle class="cls-1" cx="80.12" cy="80.37" r="6.5"/><circle class="cls-1" cx="80" cy="7" r="6.5"/><circle class="cls-1" cx="39" cy="21" r="6.5"/><circle class="cls-1" cx="121" cy="20" r="6.5"/><circle class="cls-1" cx="152" cy="80" r="6.5"/><circle class="cls-1" cx="7" cy="80" r="6.5"/><circle class="cls-1" cx="46" cy="144" r="6.5"/><circle class="cls-1" cx="115" cy="145" r="6.5"/></g></svg>