<?xml version="1.0" encoding="UTF-8"?><svg id="Layer_2" xmlns="http://www.w3.org/2000/svg" viewBox="0 0 263.87 177.95"><defs><style>.cls-1,.cls-2{fill:#fff;}.cls-1,.cls-2,.cls-3{stroke:#000;}.cls-1,.cls-3{stroke-linecap:square;stroke-linejoin:bevel;stroke-width:1.72px;}.cls-4{letter-spacing:-.03em;}.cls-5{letter-spacing:-.05em;}.cls-6{font-family:ABCDiatypeSemi-MonoVariableUnlicensedTrial-Regular, 'ABC Diatype Semi-Mono Variable Unlicensed Trial';font-size:9px;font-variation-settings:'wght' 400, 'ital' 0;}.cls-2{stroke-miterlimit:10;stroke-width:.87px;}.cls-3{fill:none;}.cls-7{letter-spacing:-.04em;}.cls-8{letter-spacing:-.03em;}.cls-9{letter-spacing:-.03em;}</style></defs><g id="Layer_2-2"><g><line class="cls-3" x1="127.93" y1="26.79" x2="104.57" y2="94.93"/><polygon points="102.92 90.73 104.74 94.45 108.45 92.63 107.65 94.98 103.93 96.79 102.12 93.08 102.92 90.73"/></g><text class="cls-6" transform="translate(87.35 7.65)"><tspan class="cls-5" x="0" y="0">W</tspan><tspan class="cls-4" x="6.62" y="0">a</tspan><tspan class="cls-9" x="11.3" y="0">t</tspan><tspan class="cls-8" x="15.17" y="0">ermelon </tspan><tspan class="cls-7" x="51.81" y="0">R</tspan><tspan class="cls-8" x="57.19" y="0">oad </tspan><tspan class="cls-8"><tspan x="7.48" y="7">neighborhood</tspan></tspan></text><polyline class="cls-3" points="145.93 27.79 233.93 102.79 233.93 176.73"/><line class="cls-3" x1="27.93" y1="102.79" x2="91.93" y2="27.79"/><polyline class="cls-3" points="216.7 176.73 233.93 102.79 225.63 176.73"/><line class="cls-3" x1="208.52" y1="176.73" x2="233.93" y2="102.79"/><polyline class="cls-3" points="27.94 176.73 27.94 102.29 37.73 176.73"/><polyline class="cls-3" points="50.38 176.73 28.43 103.79 44.05 176.73"/><polyline class="cls-3" points="56.7 176.73 100.93 103.79 100.93 27.79"/><polyline class="cls-3" points="65.63 176.73 100.93 102.29 74.56 176.73"/><polyline class="cls-3" points="89.83 176.73 100.93 102.29 83.28 176.73"/><line class="cls-3" x1="97.35" y1="176.73" x2="100.93" y2="103.79"/><polyline class="cls-3" points="119.4 176.73 100.93 103.79 111.31 176.73"/><polyline class="cls-3" points="133.63 176.73 100.93 103.79 126.38 176.73"/><polyline class="cls-3" points="140.89 176.73 100.93 103.79 149.26 176.73"/><polyline class="cls-3" points="166.28 176.73 100.93 103.79 157.63 176.73"/><polyline class="cls-3" points="173.26 176.73 100.93 102.29 104.93 176.73"/><polyline class="cls-3" points="189.93 176.73 100.93 102.29 181.07 176.73"/><line class="cls-3" x1="200.93" y1="176.73" x2="100.93" y2="102.29"/><circle class="cls-1" cx="233.43" cy="102.29" r="4.5"/><circle class="cls-1" cx="100.43" cy="102.29" r="4.5"/><circle class="cls-1" cx="28.43" cy="102.29" r="4.5"/><line class="cls-2" x1="149.93" y1="20.29" x2="94.93" y2="20.29"/><rect class="cls-2" x=".43" y="79.32" width="60" height="16"/><text class="cls-6" transform="translate(12.09 86.68)"><tspan class="cls-8" x="0" y="0">adjace</tspan><tspan class="cls-4" x="27.61" y="0">n</tspan><tspan class="cls-8" x="32.5" y="0">t</tspan><tspan class="cls-8"><tspan x="-10.25" y="7">neighborhood</tspan></tspan></text><rect class="cls-2" x="203.43" y="79.29" width="60" height="16"/><text class="cls-6" transform="translate(215.09 86.66)"><tspan class="cls-8" x="0" y="0">adjace</tspan><tspan class="cls-4" x="27.61" y="0">n</tspan><tspan class="cls-8" x="32.5" y="0">t</tspan><tspan class="cls-8"><tspan x="-10.25" y="7">neighborhood</tspan></tspan></text></g></svg>