<?xml version="1.0" encoding="UTF-8"?><svg id="Layer_2" xmlns="http://www.w3.org/2000/svg" viewBox="0 0 306.45 304.98"><defs><style>.cls-1{fill:none;stroke-width:.73px;}.cls-1,.cls-2,.cls-3{stroke:#000;stroke-miterlimit:10;}.cls-2{stroke-width:.87px;}.cls-2,.cls-3{fill:#fff;}.cls-3{stroke-width:.87px;}.cls-4{font-family:ABCDiatypeMonoUnlicensedTrial-Regular, 'ABC Diatype Mono Unlicensed Trial';font-size:9px;}</style></defs><g id="Layer_2-2"><circle class="cls-1" cx="74.05" cy="151.76" r="73.68"/><circle class="cls-1" cx="232.4" cy="151.76" r="73.68"/><circle class="cls-1" cx="153.22" cy="74.05" r="73.68"/><circle class="cls-1" cx="153.22" cy="230.94" r="73.68"/><rect class="cls-3" x="83.5" y="186.6" width="60.41" height="8" transform="translate(-98.3 124.92) rotate(-41.97)"/><text class="cls-4" transform="translate(93.39 212.59) rotate(-41.97)"><tspan x="0" y="0">tennis ball</tspan></text><rect class="cls-2" x="168.22" y="106.49" width="54.76" height="8" transform="translate(-23.72 159.15) rotate(-41.97)"/><text class="cls-4" transform="translate(177.39 130.59) rotate(-41.97)"><tspan x="0" y="0">watermelon</tspan></text><rect class="cls-3" x="94.37" y="105.5" width="33.55" height="8" transform="translate(118.23 -46.36) rotate(48.03)"/><text class="cls-4" transform="translate(98.13 99.17) rotate(48.03)"><tspan x="0" y="0">orange</tspan></text><rect class="cls-2" x="169.47" y="186.76" width="45" height="8" transform="translate(205.42 -79.54) rotate(48.03)"/><text class="cls-4" transform="translate(175.13 176.17) rotate(48.03)"><tspan x="0" y="0">football</tspan></text></g></svg>