<?xml version="1.0" encoding="UTF-8"?><svg id="Layer_2" xmlns="http://www.w3.org/2000/svg" viewBox="0 0 145.52 149.52"><defs><style>.cls-1{fill:none;stroke:#000;stroke-miterlimit:10;}</style></defs><g id="Layer_2-2"><rect class="cls-1" x="27.72" y="31.79" width="87.99" height="87.99" transform="translate(-32.58 72.9) rotate(-45)"/><circle class="cls-1" cx="9.65" cy="66.87" r="6.5"/><circle class="cls-1" cx="18.85" cy="57.67" r="6.5"/><circle class="cls-1" cx="28.04" cy="48.48" r="6.5"/><circle class="cls-1" cx="37.23" cy="39.29" r="6.5"/><circle class="cls-1" cx="46.42" cy="30.1" r="6.5"/><circle class="cls-1" cx="55.62" cy="20.9" r="6.5"/><circle class="cls-1" cx="64.81" cy="11.71" r="6.5"/><circle class="cls-1" cx="81.15" cy="138.37" r="6.5"/><circle class="cls-1" cx="90.35" cy="129.17" r="6.5"/><circle class="cls-1" cx="99.54" cy="119.98" r="6.5"/><circle class="cls-1" cx="108.73" cy="110.79" r="6.5"/><circle class="cls-1" cx="117.92" cy="101.6" r="6.5"/><circle class="cls-1" cx="127.12" cy="92.4" r="6.5"/><circle class="cls-1" cx="136.31" cy="83.21" r="6.5"/><circle class="cls-1" cx="9.15" cy="85.21" r="6.5"/><circle class="cls-1" cx="18.35" cy="94.4" r="6.5"/><circle class="cls-1" cx="27.54" cy="103.6" r="6.5"/><circle class="cls-1" cx="36.73" cy="112.79" r="6.5"/><circle class="cls-1" cx="45.92" cy="121.98" r="6.5"/><circle class="cls-1" cx="55.12" cy="131.17" r="6.5"/><circle class="cls-1" cx="64.52" cy="140.5" r="6.5"/><circle class="cls-1" cx="79.15" cy="11.21" r="6.5"/><circle class="cls-1" cx="88.35" cy="20.4" r="6.5"/><circle class="cls-1" cx="97.54" cy="29.6" r="6.5"/><circle class="cls-1" cx="106.73" cy="38.79" r="6.5"/><circle class="cls-1" cx="115.92" cy="47.98" r="6.5"/><circle class="cls-1" cx="125.12" cy="57.17" r="6.5"/><circle class="cls-1" cx="134.31" cy="66.37" r="6.5"/><circle class="cls-1" cx="71.71" cy="4.26" r="3.76"/><circle class="cls-1" cx="73.71" cy="145.26" r="3.76"/><circle class="cls-1" cx="141.26" cy="74.26" r="3.76"/><circle class="cls-1" cx="4.26" cy="76.26" r="3.76"/><line class="cls-1" x1="71.71" y1="13.56" x2="71.71" y2="138"/><line class="cls-1" x1="9.49" y1="75.78" x2="133.93" y2="75.78"/></g></svg>