<?xml version="1.0" encoding="UTF-8"?><svg id="Layer_2" xmlns="http://www.w3.org/2000/svg" viewBox="0 0 203.46 249.38"><defs><style>.cls-1{stroke-width:.58px;}.cls-1,.cls-2,.cls-3,.cls-4{stroke:#000;stroke-miterlimit:10;}.cls-1,.cls-3,.cls-4{fill:#fff;}.cls-2{fill:none;}.cls-2,.cls-4{stroke-width:1.72px;}.cls-3{stroke-width:.5px;}.cls-5{font-family:ABCDiatypeMonoUnlicensedTrial-Regular, 'ABC Diatype Mono Unlicensed Trial';font-size:9px;}</style></defs><g id="Layer_2-2"><line class="cls-2" x1="47.86" y1="59.86" x2="73.86" y2="114.86"/><line class="cls-2" x1="125.86" y1="61.86" x2="133.86" y2="117.86"/><line class="cls-2" x1="89.86" y1="61.86" x2="101.86" y2="116.86"/><polyline class="cls-2" points="75.86 121.36 75.86 174.86 95.36 230.36"/><line class="cls-2" x1="46.86" y1="116.86" x2="25.86" y2="173.86"/><polyline class="cls-2" points="2.86 117.86 85.86 4.86 124.86 59.86"/><line class="cls-2" x1="14.86" y1="154.86" x2="86.86" y2="63.86"/><line class="cls-2" x1="75.86" y1="116.86" x2="122.86" y2="63.86"/><circle class="cls-4" cx="85.36" cy="5.36" r="4.5"/><circle class="cls-4" cx="47.36" cy="61.36" r="4.5"/><circle class="cls-4" cx="87.36" cy="61.36" r="4.5"/><circle class="cls-4" cx="126.36" cy="61.36" r="4.5"/><polyline class="cls-2" points="45.86 118.36 48.86 173.86 104.36 117.11 126.36 176.86 133.76 229.36 149.37 176.86 178.36 229.36 202.77 197.23"/><polyline class="cls-2" points="48.86 173.86 75.36 117.11 101.86 175.86"/><polyline class="cls-2" points="115.22 231.86 101.86 175.86 103.86 121.36"/><polyline class="cls-2" points="101.86 175.86 71.36 230.36 50.36 176.36 50.36 230.36 74.36 176.36"/><polyline class="cls-2" points="95.36 230.36 126.36 176.86 133.36 117.11 149.37 176.86 156.49 228.36"/><polyline class="cls-2" points="29.36 230.36 24.36 176.36 50.36 228.86"/><line class="cls-2" x1="5.36" y1="231.86" x2="24.36" y2="176.36"/><circle class="cls-4" cx="5.36" cy="230.03" r="4.5"/><circle class="cls-4" cx="48.61" cy="230.03" r="4.5"/><circle class="cls-4" cx="26.99" cy="230.03" r="4.5"/><circle class="cls-4" cx="113.49" cy="230.03" r="4.5"/><circle class="cls-4" cx="91.86" cy="230.03" r="4.5"/><circle class="cls-4" cx="70.24" cy="230.03" r="4.5"/><circle class="cls-4" cx="156.74" cy="230.03" r="4.5"/><circle class="cls-4" cx="135.11" cy="230.03" r="4.5"/><circle class="cls-4" cx="178.36" cy="230.03" r="4.5"/><circle class="cls-4" cx="25.36" cy="176.36" r="4.5"/><circle class="cls-4" cx="50.36" cy="176.36" r="4.5"/><circle class="cls-4" cx="75.36" cy="176.36" r="4.5"/><circle class="cls-4" cx="100.36" cy="176.36" r="4.5"/><circle class="cls-4" cx="125.36" cy="176.36" r="4.5"/><circle class="cls-4" cx="150.36" cy="176.36" r="4.5"/><circle class="cls-4" cx="75.36" cy="117.11" r="4.5"/><circle class="cls-4" cx="104.36" cy="117.11" r="4.5"/><circle class="cls-4" cx="46.36" cy="117.11" r="4.5"/><circle class="cls-4" cx="133.36" cy="117.11" r="4.5"/><rect class="cls-1" x="33.36" y="87.36" width="96" height="8"/><text class="cls-5" transform="translate(34.86 94.32)"><tspan x="0" y="0">overlapping group</tspan></text><rect class="cls-3" x="55.86" y="239.86" width="63" height="8"/><text class="cls-5" transform="translate(57.36 246.82)"><tspan x="0" y="0">individuals</tspan></text></g></svg>