<?xml version="1.0" encoding="UTF-8"?><svg id="Layer_2" xmlns="http://www.w3.org/2000/svg" viewBox="0 0 227.39 149.74"><defs><style>.cls-1{fill:none;}.cls-1,.cls-2,.cls-3,.cls-4{stroke:#000;stroke-miterlimit:10;}.cls-1,.cls-4{stroke-width:1.72px;}.cls-2{stroke-width:.87px;}.cls-2,.cls-3,.cls-4{fill:#fff;}.cls-3{stroke-width:.87px;}.cls-5{font-family:ABCDiatypeMonoUnlicensedTrial-Regular, 'ABC Diatype Mono Unlicensed Trial';font-size:9px;}</style></defs><g id="Layer_2-2"><polyline class="cls-1" points="81.45 80.2 105.95 5.36 129.45 81.36"/><rect class="cls-3" x="110.96" y="140.15" width="60.41" height="8"/><text class="cls-5" transform="translate(111.4 146.94)"><tspan x="0" y="0">tennis ball</tspan></text><rect class="cls-2" x="45.25" y="140.36" width="54.76" height="8"/><text class="cls-5" transform="translate(45.69 147.15)"><tspan x="0" y="0">watermelon</tspan></text><polyline class="cls-1" points="14.45 136.86 32.45 80.86 67.85 44.2 105.7 5.86 183.45 82.86 204.45 134.86"/><line class="cls-1" x1="129.45" y1="133.86" x2="81.45" y2="82.86"/><line class="cls-1" x1="204.45" y1="134.86" x2="130.45" y2="82.86"/><line class="cls-1" x1="79.45" y1="131.86" x2="31.45" y2="80.86"/><line class="cls-1" x1="129.45" y1="133.86" x2="183.98" y2="82.57"/><line class="cls-1" x1="80.45" y1="132.86" x2="132.98" y2="80.57"/><line class="cls-1" x1="17.45" y1="134.86" x2="82.98" y2="80.57"/><rect class="cls-3" x=".43" y="140.38" width="33.55" height="8"/><text class="cls-5" transform="translate(.86 147.19)"><tspan x="0" y="0">orange</tspan></text><rect class="cls-2" x="181.95" y="140.36" width="45" height="8"/><text class="cls-5" transform="translate(182.39 147.16)"><tspan x="0" y="0">football</tspan></text><circle class="cls-4" cx="16.95" cy="134.36" r="4.5"/><circle class="cls-4" cx="128.95" cy="133.36" r="4.5"/><circle class="cls-4" cx="183.95" cy="82.36" r="4.5"/><circle class="cls-4" cx="31.95" cy="81.36" r="4.5"/><circle class="cls-4" cx="80.95" cy="82.36" r="4.5"/><circle class="cls-4" cx="128.95" cy="82.36" r="4.5"/><circle class="cls-4" cx="105.95" cy="5.36" r="4.5"/><circle class="cls-4" cx="80.95" cy="133.36" r="4.5"/><circle class="cls-4" cx="203.95" cy="133.36" r="4.5"/></g></svg>