<?xml version="1.0" encoding="UTF-8"?><svg id="Layer_2" xmlns="http://www.w3.org/2000/svg" viewBox="0 0 127.83 114.87"><defs><style>.cls-1{stroke-linecap:square;stroke-linejoin:bevel;}.cls-1,.cls-2{stroke-width:.87px;}.cls-1,.cls-2,.cls-3,.cls-4,.cls-5{stroke:#000;}.cls-1,.cls-2,.cls-3,.cls-5{fill:#fff;}.cls-6{font-family:ABCDiatypeMonoUnlicensedTrial-Regular, 'ABC Diatype Mono Unlicensed Trial';font-size:6px;}.cls-2,.cls-3,.cls-4,.cls-5{stroke-miterlimit:10;}.cls-4{fill:none;}.cls-5{stroke-width:.66px;}</style></defs><g id="Layer_2-2"><line class="cls-2" x1="72.83" y1="114.43" x2="38.83" y2="114.43"/><rect class="cls-1" x="24.33" y=".43" width="63" height="7"/><text class="cls-6" transform="translate(25.83 6.13)"><tspan x="0" y="0">Chandigarh center</tspan></text><line class="cls-4" x1="22.33" y1="94.43" x2="19.6" y2="64.61"/><line class="cls-4" x1="16.33" y1="94.43" x2="20.1" y2="65.11"/><line class="cls-4" x1="30.33" y1="94.43" x2="20.1" y2="65.11"/><polyline class="cls-4" points="8.33 94.43 19.33 64.43 56.33 17.43"/><line class="cls-4" x1="90.33" y1="94.43" x2="93.06" y2="64.61"/><line class="cls-4" x1="96.33" y1="94.43" x2="92.56" y2="65.11"/><line class="cls-4" x1="82.33" y1="94.43" x2="92.56" y2="65.11"/><polyline class="cls-4" points="104.33 94.43 93.33 64.43 56.33 17.43"/><circle class="cls-3" cx="92.83" cy="64.93" r="4.5"/><circle class="cls-3" cx="56.6" cy="17.61" r="4.5"/><circle class="cls-3" cx="19.6" cy="64.61" r="4.5"/><rect class="cls-5" x=".33" y="52.43" width="40" height="6"/><text class="cls-6" transform="translate(2.83 57.13)"><tspan x="0" y="0">subcenter</tspan></text><text class="cls-6" transform="translate(9.83 106.13)"><tspan x="0" y="0">20 individual sector centers</tspan></text><rect class="cls-5" x="68.33" y="52.43" width="40" height="6"/><text class="cls-6" transform="translate(70.83 57.13)"><tspan x="0" y="0">subcenter</tspan></text></g></svg>