<?xml version="1.0" encoding="UTF-8"?><svg id="Layer_2" xmlns="http://www.w3.org/2000/svg" viewBox="0 0 278.41 129.92"><defs><style>.cls-1{font-size:6.19px;}.cls-1,.cls-2{font-family:ABCDiatypeMonoUnlicensedTrial-Regular, 'ABC Diatype Mono Unlicensed Trial';}.cls-3{letter-spacing:-.01em;}.cls-4{letter-spacing:0em;}.cls-5{letter-spacing:0em;}.cls-6{letter-spacing:0em;}.cls-7{stroke-linecap:square;stroke-linejoin:bevel;}.cls-7,.cls-8,.cls-9,.cls-10,.cls-11,.cls-12{stroke:#000;}.cls-7,.cls-11{fill:none;}.cls-13{letter-spacing:0em;}.cls-2{font-size:6px;}.cls-14{letter-spacing:-.01em;}.cls-8{stroke-width:.5px;}.cls-8,.cls-9,.cls-10,.cls-11,.cls-12{stroke-miterlimit:10;}.cls-8,.cls-9,.cls-10,.cls-12{fill:#fff;}.cls-9{stroke-width:.87px;}.cls-15{letter-spacing:0em;}.cls-16{letter-spacing:-.01em;}.cls-17{letter-spacing:-.03em;}.cls-18{letter-spacing:-.02em;}.cls-19{letter-spacing:0em;}.cls-20{font-family:ABCDiatypeUnlicensedTrial-Regular, 'ABC Diatype Unlicensed Trial';font-size:4.45px;}.cls-12{stroke-width:.66px;}</style></defs><g id="Layer_2-2"><g><line class="cls-11" x1="194.91" y1="95.4" x2="203.72" y2="56.35"/><line class="cls-11" x1="212.08" y1="75.38" x2="203.72" y2="56.35"/></g><g><polyline class="cls-11" points="242.72 95.4 254.72 56.35 267.41 95.4"/><line class="cls-11" x1="255.12" y1="95.4" x2="254.72" y2="56.35"/></g><line class="cls-11" x1="101.91" y1="56.2" x2="178.22" y2="17.35"/><polyline class="cls-11" points="203.13 55.85 177.91 17.2 252.91 56.2"/><g><polyline class="cls-11" points="137.08 95.4 152.72 56.35 149.08 95.4"/><line class="cls-11" x1="143.08" y1="95.4" x2="152.72" y2="56.35"/></g><g><polyline class="cls-11" points="96.08 95.4 101.72 56.35 114.41 95.4"/><line class="cls-11" x1="102.08" y1="95.4" x2="101.72" y2="56.35"/></g><rect class="cls-12" x="85.91" y="38.25" width="38" height="7"/><text class="cls-2" transform="translate(86.41 43.51)"><tspan x="0" y="0">commercial</tspan></text><rect class="cls-12" x="158.91" y="2.25" width="38" height="7"/><text class="cls-2" transform="translate(159.41 7.52)"><tspan x="0" y="0">Communitas</tspan></text><polyline class="cls-11" points="108.33 95.4 101.72 55.85 90.08 95.4"/><circle cx="212.3" cy="75.4" r="2.75"/><polyline class="cls-11" points="155.3 95.4 152.72 55.85 161.3 95.4"/><line class="cls-11" x1="167.3" y1="95.4" x2="152.72" y2="55.85"/><polyline class="cls-11" points="173.3 95.4 151.87 55.85 177.91 17.2"/><line class="cls-11" x1="179.3" y1="95.4" x2="152.72" y2="56.35"/><polyline class="cls-11" points="210 95.4 212.3 75.4 207.08 95.4"/><line class="cls-11" x1="216.09" y1="95.4" x2="212.08" y2="75.38"/><polyline class="cls-7" points="219.14 95.4 212.08 75.38 213.04 95.4"/><line class="cls-11" x1="222.34" y1="95.4" x2="212.3" y2="75.4"/><circle class="cls-10" cx="177.72" cy="16.85" r="4.5"/><circle class="cls-10" cx="203.41" cy="55.85" r="4.5"/><circle class="cls-10" cx="254.41" cy="55.7" r="4.5"/><circle class="cls-10" cx="101.41" cy="55.7" r="4.5"/><circle class="cls-10" cx="152.41" cy="55.85" r="4.5"/><rect class="cls-8" x="95.25" y="99.7" width="10.31" height="5.5"/><text class="cls-1" transform="translate(98.64 104.26)"><tspan x="0" y="0">1</tspan></text><rect class="cls-8" x=".25" y=".7" width="10.31" height="5.5"/><text class="cls-1" transform="translate(3.64 5.26)"><tspan x="0" y="0">1</tspan></text><rect class="cls-8" x=".25" y="23.7" width="10.31" height="5.5"/><text class="cls-1" transform="translate(3.64 28.26)"><tspan x="0" y="0">2</tspan></text><rect class="cls-8" x=".25" y="63.7" width="10.31" height="5.5"/><text class="cls-1" transform="translate(3.64 68.26)"><tspan x="0" y="0">3</tspan></text><rect class="cls-8" x="199.25" y="99.7" width="10.31" height="5.5"/><text class="cls-1" transform="translate(202.64 104.26)"><tspan x="0" y="0">3</tspan></text><rect class="cls-8" x=".25" y="86.7" width="10.31" height="5.5"/><text class="cls-1" transform="translate(3.64 91.26)"><tspan x="0" y="0">4</tspan></text><line class="cls-9" x1="41.51" y1="24.2" x2="16.31" y2="24.2"/><line class="cls-9" x1="41.51" y1="62.73" x2="16.31" y2="62.73"/><line class="cls-9" x1="41.51" y1="86.44" x2="16.31" y2="86.44"/><text class="cls-20" transform="translate(16.05 4.81)"><tspan x="0" y="0">airport</tspan><tspan x="0" y="4.45">admini</tspan><tspan class="cls-5" x="13.12" y="4.45">s</tspan><tspan x="15.24" y="4.45">t</tspan><tspan class="cls-6" x="16.71" y="4.45">r</tspan><tspan class="cls-4" x="18.21" y="4.45">at</tspan><tspan x="21.89" y="4.45">o</tspan><tspan class="cls-17" x="24.38" y="4.45">r</tspan><tspan x="0" y="8.89">lig</tspan><tspan class="cls-4" x="4.66" y="8.89">h</tspan><tspan x="7.1" y="8.89">t mai</tspan><tspan class="cls-19" x="16.65" y="8.89">n</tspan><tspan class="cls-13" x="19.09" y="8.89">t</tspan><tspan x="20.53" y="8.89">enance</tspan><tspan x="0" y="13.34">shipping</tspan><tspan class="cls-6" x="0" y="17.78">r</tspan><tspan x="1.5" y="17.78">ails+buses</tspan></text><text class="cls-20" transform="translate(16.05 28.52)"><tspan x="0" y="0">n</tspan><tspan class="cls-4" x="2.46" y="0">a</tspan><tspan x="4.7" y="0">tional hi</tspan><tspan class="cls-5" x="20.01" y="0">st</tspan><tspan x="23.57" y="0">or</tspan><tspan class="cls-18" x="27.6" y="0">y</tspan><tspan class="cls-15" x="0" y="4.45">z</tspan><tspan x="2.02" y="4.45">oos</tspan><tspan x="0" y="8.89">plan</tspan><tspan class="cls-5" x="8.35" y="8.89">e</tspan><tspan x="10.73" y="8.89">tarium</tspan><tspan class="cls-16" x="23.2" y="8.89">s</tspan><tspan class="cls-18" x="25.3" y="8.89">v</tspan><tspan x="0" y="13.34">science</tspan><tspan x="0" y="17.78">labo</tspan><tspan class="cls-6" x="8.38" y="17.78">r</tspan><tspan class="cls-4" x="9.88" y="17.78">at</tspan><tspan x="13.56" y="17.78">ories</tspan><tspan x="0" y="22.23">pla</tspan><tspan class="cls-5" x="5.89" y="22.23">s</tspan><tspan x="8.01" y="22.23">tic</tspan><tspan x="0" y="26.68">music</tspan><tspan x="0" y="31.12">d</tspan><tspan class="cls-6" x="2.59" y="31.12">r</tspan><tspan x="4.09" y="31.12">ama</tspan></text><text class="cls-20" transform="translate(16.05 92.25)"><tspan class="cls-6" x="0" y="0">f</tspan><tspan x="1.36" y="0">o</tspan><tspan class="cls-3" x="3.85" y="0">r</tspan><tspan x="5.34" y="0">e</tspan><tspan class="cls-13" x="7.74" y="0">s</tspan><tspan x="9.86" y="0">t p</tspan><tspan class="cls-3" x="14.97" y="0">r</tspan><tspan x="16.46" y="0">eser</tspan><tspan class="cls-16" x="24.95" y="0">v</tspan><tspan x="27.07" y="0">es</tspan><tspan x="0" y="4.45">agricultu</tspan><tspan class="cls-14" x="17.16" y="4.45">r</tspan><tspan x="18.65" y="4.45">e</tspan><tspan class="cls-16" x="0" y="8.89">v</tspan><tspan x="2.12" y="8.89">ac</tspan><tspan class="cls-4" x="6.76" y="8.89">a</tspan><tspan x="9" y="8.89">tion lands</tspan></text><text class="cls-20" transform="translate(16.05 70.02)"><tspan x="0" y="0">hospitals</tspan><tspan class="cls-14" x="0" y="8.89">r</tspan><tspan x="1.49" y="8.89">eside</tspan><tspan class="cls-19" x="12.06" y="8.89">n</tspan><tspan x="14.5" y="8.89">tial </tspan><tspan x="0" y="13.34">neighborhoods</tspan></text><rect class="cls-12" x="133.91" y="38.25" width="38" height="7"/><text class="cls-2" transform="translate(134.41 43.52)"><tspan x="0" y="0">university</tspan></text><rect class="cls-12" x="181.91" y="38.25" width="39" height="7"/><text class="cls-2" transform="translate(181.61 43.52)"><tspan x="0" y="0">residential</tspan></text><rect class="cls-12" x="228.91" y="38.25" width="47" height="7"/><text class="cls-2" transform="translate(230.81 43.52)"><tspan x="0" y="0">open country</tspan></text><rect class="cls-8" x="147.28" y="99.29" width="10.31" height="5.5"/><text class="cls-1" transform="translate(150.67 103.85)"><tspan x="0" y="0">2</tspan></text><rect class="cls-8" x="250.41" y="99.23" width="10.31" height="5.5"/><text class="cls-1" transform="translate(253.8 103.8)"><tspan x="0" y="0">4</tspan></text></g></svg>