<?xml version="1.0" encoding="UTF-8"?><svg id="Layer_2" xmlns="http://www.w3.org/2000/svg" viewBox="0 0 238.5 185.71"><defs><style>.cls-1{stroke-width:.58px;}.cls-1,.cls-2,.cls-3,.cls-4,.cls-5,.cls-6{stroke:#000;stroke-miterlimit:10;}.cls-1,.cls-2,.cls-4,.cls-5,.cls-6{fill:#fff;}.cls-2{stroke-width:.62px;}.cls-3{fill:none;}.cls-3,.cls-5{stroke-width:1.72px;}.cls-4{stroke-width:.5px;}.cls-7{font-family:ABCDiatypeMonoUnlicensedTrial-Regular, 'ABC Diatype Mono Unlicensed Trial';font-size:9px;}.cls-6{stroke-width:.75px;}</style></defs><g id="Layer_2-2"><line class="cls-3" x1="32.25" y1="137.19" x2="55.25" y2="170.19"/><line class="cls-3" x1="142.75" y1="111.69" x2="142.75" y2="169.69"/><rect class="cls-4" x=".25" y="176.19" width="15" height="8"/><polyline class="cls-3" points="8.25 170.19 120.65 15.79 231.25 170.19"/><line class="cls-3" x1="143.25" y1="114.19" x2="187.25" y2="172.19"/><line class="cls-3" x1="98.93" y1="169.45" x2="167.25" y2="83.19"/><circle class="cls-5" cx="54.75" cy="169.69" r="4.5"/><circle class="cls-5" cx="97.82" cy="169.69" r="4.5"/><circle class="cls-5" cx="7.75" cy="169.69" r="4.5"/><circle class="cls-5" cx="142.65" cy="169.69" r="4.5"/><circle class="cls-5" cx="142.75" cy="112.69" r="4.5"/><circle class="cls-5" cx="168.75" cy="82.69" r="4.5"/><circle class="cls-5" cx="120.75" cy="15.69" r="4.5"/><circle class="cls-5" cx="186.15" cy="169.69" r="4.5"/><circle class="cls-5" cx="230.75" cy="169.69" r="4.5"/><text class="cls-7" transform="translate(4.68 183.15)"><tspan x="0" y="0">1</tspan></text><rect class="cls-4" x="47.25" y="176.19" width="15" height="8"/><text class="cls-7" transform="translate(51.68 183.15)"><tspan x="0" y="0">2</tspan></text><rect class="cls-4" x="90.25" y="176.19" width="15" height="8"/><text class="cls-7" transform="translate(94.68 183.15)"><tspan x="0" y="0">3</tspan></text><rect class="cls-4" x="135.25" y="176.19" width="15" height="8"/><text class="cls-7" transform="translate(139.68 183.15)"><tspan x="0" y="0">4</tspan></text><rect class="cls-1" x="132.75" y="96.69" width="20" height="8"/><text class="cls-7" transform="translate(134.18 103.65)"><tspan x="0" y="0">345</tspan></text><rect class="cls-2" x="158.75" y="67.69" width="23" height="8"/><text class="cls-7" transform="translate(159.18 74.65)"><tspan x="0" y="0">3456</tspan></text><rect class="cls-6" x="104.75" y=".69" width="34" height="8"/><text class="cls-7" transform="translate(105.18 7.65)"><tspan x="0" y="0">123456</tspan></text><rect class="cls-4" x="179.25" y="176.19" width="15" height="8"/><text class="cls-7" transform="translate(183.68 183.15)"><tspan x="0" y="0">5</tspan></text><rect class="cls-4" x="223.25" y="176.19" width="15" height="8"/><text class="cls-7" transform="translate(227.68 183.15)"><tspan x="0" y="0">6</tspan></text><circle class="cls-5" cx="31.9" cy="138.56" r="4.5"/><rect class="cls-1" x="22" y="123.56" width="20" height="8"/><text class="cls-7" transform="translate(25.42 130.51)"><tspan x="0" y="0">12</tspan></text></g></svg>