<?xml version="1.0" encoding="UTF-8"?><svg id="Layer_2" xmlns="http://www.w3.org/2000/svg" viewBox="0 0 304.8 125.35"><defs><style>.cls-1{letter-spacing:-.05em;}.cls-2{letter-spacing:-.04em;}.cls-3{letter-spacing:-.05em;}.cls-4{font-family:ABCDiatypeSemi-MonoVariableUnlicensedTrial-Regular, 'ABC Diatype Semi-Mono Variable Unlicensed Trial';font-size:9px;font-variation-settings:'wght' 400, 'ital' 0;}.cls-5,.cls-6{fill:#fff;}.cls-5,.cls-6,.cls-7{stroke:#000;stroke-miterlimit:10;}.cls-5,.cls-7{stroke-width:.87px;}.cls-8{letter-spacing:-.04em;}.cls-9{letter-spacing:-.03em;}.cls-6{stroke-width:1.72px;}.cls-7{fill:none;}.cls-10{letter-spacing:-.04em;}.cls-11{letter-spacing:-.03em;}.cls-12{letter-spacing:-.03em;}</style></defs><g id="Layer_2-2"><rect class="cls-5" x="126.43" y=".43" width="33" height="9"/><text class="cls-4" transform="translate(127.49 8.23)"><tspan class="cls-12" x="0" y="0">L</tspan><tspan class="cls-11" x="4.89" y="0">ondon</tspan></text><polyline class="cls-7" points="8.43 81.43 142.43 19.43 25.43 94.43"/><polyline class="cls-7" points="59.43 109.43 142.43 19.43 45.43 99.43"/><polyline class="cls-7" points="93.43 117.43 142.43 19.43 76.43 114.43"/><polyline class="cls-7" points="143.93 99.35 142.43 19.43 120.43 97.43"/><polyline class="cls-7" points="201.43 116.43 142.43 19.43 167.93 99.35"/><polyline class="cls-7" points="250.43 102.43 142.43 19.43 226.43 110.43"/><polyline class="cls-7" points="299.43 80.43 142.43 19.43 275.43 93.43"/><circle class="cls-6" cx="142.43" cy="19.43" r="4.5"/><circle class="cls-6" cx="8.43" cy="81.43" r="4.5"/><circle class="cls-6" cx="25.43" cy="94.43" r="4.5"/><circle class="cls-6" cx="42.43" cy="103.43" r="4.5"/><circle class="cls-6" cx="59.43" cy="109.43" r="4.5"/><circle class="cls-6" cx="76.43" cy="114.43" r="4.5"/><circle class="cls-6" cx="93.43" cy="117.43" r="4.5"/><circle class="cls-6" cx="120.43" cy="99.43" r="4.5"/><circle class="cls-6" cx="143.93" cy="99.43" r="4.5"/><circle class="cls-6" cx="167.43" cy="99.43" r="4.5"/><circle class="cls-6" cx="201.43" cy="117.43" r="4.5"/><circle class="cls-6" cx="226.43" cy="111.43" r="4.5"/><circle class="cls-6" cx="250.43" cy="101.43" r="4.5"/><circle class="cls-6" cx="275.43" cy="93.43" r="4.5"/><circle class="cls-6" cx="299.43" cy="80.43" r="4.5"/><rect class="cls-5" x="59.43" y="98.43" width="60" height="9"/><text class="cls-4" transform="translate(66.01 105.8)"><tspan class="cls-2" x="0" y="0">K</tspan><tspan class="cls-11" x="5.11" y="0">ensing</tspan><tspan class="cls-10" x="32.85" y="0">t</tspan><tspan class="cls-9" x="36.72" y="0">on</tspan></text><rect class="cls-5" x="176.43" y="99.43" width="41" height="9"/><text class="cls-4" transform="translate(179.05 106.8)"><tspan class="cls-11" x="0" y="0">Lamb</tspan><tspan class="cls-12" x="20.85" y="0">e</tspan><tspan class="cls-11" x="25.67" y="0">th</tspan></text><rect class="cls-5" x="242.43" y="65.43" width="51" height="9"/><text class="cls-4" transform="translate(243.07 72.8)"><tspan class="cls-3" x="0" y="0">W</tspan><tspan class="cls-11" x="6.62" y="0">and</tspan><tspan class="cls-10" x="21.26" y="0">sw</tspan><tspan class="cls-9" x="31.73" y="0">orth</tspan></text><rect class="cls-5" x=".43" y="63.43" width="47" height="9"/><text class="cls-4" transform="translate(3.82 70.8)"><tspan class="cls-8" x="0" y="0">H</tspan><tspan class="cls-11" x="5.69" y="0">amp</tspan><tspan class="cls-12" x="21.63" y="0">st</tspan><tspan class="cls-11" x="30.06" y="0">ed</tspan></text><rect class="cls-5" x="133.43" y="115.43" width="22" height="9"/><text class="cls-4" transform="translate(137.35 122.8)"><tspan class="cls-12" x="0" y="0">et</tspan><tspan class="cls-9" x="8.69" y="0">c</tspan><tspan class="cls-1" x="13.51" y="0">.</tspan></text><rect class="cls-5" x="227.43" y="86.43" width="22" height="9"/><text class="cls-4" transform="translate(231.35 93.8)"><tspan class="cls-12" x="0" y="0">et</tspan><tspan class="cls-9" x="8.69" y="0">c</tspan><tspan class="cls-1" x="13.51" y="0">.</tspan></text><rect class="cls-5" x="29.43" y="81.43" width="22" height="9"/><text class="cls-4" transform="translate(33.35 88.8)"><tspan class="cls-12" x="0" y="0">et</tspan><tspan class="cls-9" x="8.69" y="0">c</tspan><tspan class="cls-1" x="13.51" y="0">.</tspan></text></g></svg>