<?xml version="1.0" encoding="UTF-8"?><svg id="Layer_2" xmlns="http://www.w3.org/2000/svg" viewBox="0 0 100.5 109.86"><defs><style>.cls-1{stroke-width:.5px;}.cls-1,.cls-2{fill:#fff;}.cls-1,.cls-2,.cls-3{stroke:#000;stroke-miterlimit:10;}.cls-4{font-family:ABCDiatypeMonoUnlicensedTrial-Regular, 'ABC Diatype Mono Unlicensed Trial';font-size:9px;}.cls-3{fill:none;}</style></defs><g id="Layer_2-2"><line class="cls-3" x1="27.08" y1="81.02" x2="21.89" y2="52"/><line class="cls-3" x1="14.39" y1="81.5" x2="22.39" y2="52.5"/><polyline class="cls-3" points="74.42 80.02 80.39 53.5 86.08 80.02"/><line class="cls-3" x1="98.39" y1="80.5" x2="52.72" y2="4.58"/><line class="cls-3" x1="39.39" y1="81.5" x2="22.39" y2="52.5"/><line class="cls-3" x1="2.65" y1="81.66" x2="50.41" y2="6.64"/><line class="cls-3" x1="62.39" y1="80.5" x2="79.39" y2="51.5"/><circle class="cls-2" cx="79.89" cy="52" r="4.5"/><circle class="cls-2" cx="51.89" cy="5" r="4.5"/><circle cx="2.75" cy="81.02" r="2.75"/><circle cx="14.42" cy="81.02" r="2.75"/><circle cx="27.08" cy="81.02" r="2.75"/><circle cx="38.75" cy="81.02" r="2.75"/><circle cx="62.75" cy="81.02" r="2.75"/><circle cx="74.42" cy="81.02" r="2.75"/><circle cx="86.08" cy="81.02" r="2.75"/><circle cx="97.75" cy="81.02" r="2.75"/><circle class="cls-2" cx="21.89" cy="52" r="4.5"/><rect class="cls-1" x="19.39" y="33.5" width="69" height="9"/><text class="cls-4" transform="translate(19.69 40.3)"><tspan x="0" y="0">closed group</tspan></text><rect class="cls-1" x="20.39" y="100.5" width="63" height="8"/><text class="cls-4" transform="translate(20.39 107.3)"><tspan x="0" y="0">individuals</tspan></text></g></svg>