<?xml version="1.0" encoding="UTF-8"?><svg id="Layer_2" xmlns="http://www.w3.org/2000/svg" viewBox="0 0 249.5 264.26"><defs><style>.cls-1{stroke-width:.58px;}.cls-1,.cls-2,.cls-3,.cls-4,.cls-5,.cls-6,.cls-7,.cls-8,.cls-9,.cls-10{stroke-miterlimit:10;}.cls-1,.cls-2,.cls-3,.cls-5,.cls-6{fill:#fff;}.cls-1,.cls-2,.cls-3,.cls-5,.cls-6,.cls-9{stroke:#000;}.cls-2{stroke-width:.62px;}.cls-3,.cls-4,.cls-7,.cls-8,.cls-9,.cls-10{stroke-width:.5px;}.cls-4{opacity:.95;stroke:#232323;}.cls-4,.cls-7,.cls-8,.cls-9,.cls-10{fill:none;}.cls-11{font-family:ABCDiatypeMonoUnlicensedTrial-Regular, 'ABC Diatype Mono Unlicensed Trial';font-size:9px;}.cls-5{stroke-width:.72px;}.cls-6{stroke-width:.75px;}.cls-7{stroke:#8c8c8c;}.cls-8{stroke:#696969;}.cls-10{stroke:#464646;}</style></defs><g id="Layer_2-2"><rect class="cls-5" x="104.75" y="228.75" width="31" height="8"/><text class="cls-11" transform="translate(106.18 235.71)"><tspan x="0" y="0">12345</tspan></text><circle class="cls-9" cx="124.75" cy="124.75" r="124.5"/><circle class="cls-4" cx="109.75" cy="116.75" r="103.5"/><circle class="cls-10" cx="88.97" cy="139.09" r="70.53"/><circle class="cls-10" cx="153.53" cy="126.78" r="70.53"/><circle class="cls-8" cx="106.29" cy="133.63" r="48"/><circle class="cls-8" cx="150.21" cy="125.25" r="48"/><circle class="cls-7" cx="132.46" cy="132.45" r="30.17"/><circle class="cls-7" cx="160.08" cy="127.18" r="30.17"/><rect class="cls-6" x="104.75" y="254.75" width="34" height="8"/><text class="cls-11" transform="translate(105.18 261.71)"><tspan x="0" y="0">123456</tspan></text><rect class="cls-3" x="40.75" y="125.75" width="15" height="8"/><text class="cls-11" transform="translate(45.18 132.71)"><tspan x="0" y="0">1</tspan></text><g><rect class="cls-3" x="66.75" y="125.75" width="15" height="8"/><text class="cls-11" transform="translate(71.18 132.71)"><tspan x="0" y="0">2</tspan></text></g><rect class="cls-3" x="109.75" y="125.75" width="15" height="8"/><text class="cls-11" transform="translate(114.18 132.71)"><tspan x="0" y="0">3</tspan></text><rect class="cls-3" x="152.75" y="133.75" width="15" height="8"/><text class="cls-11" transform="translate(157.18 140.71)"><tspan x="0" y="0">4</tspan></text><rect class="cls-3" x="170.75" y="109.75" width="15" height="8"/><text class="cls-11" transform="translate(175.18 116.71)"><tspan x="0" y="0">5</tspan></text><rect class="cls-1" x="110.75" y="204.75" width="20" height="8"/><text class="cls-11" transform="translate(112.18 211.71)"><tspan x="0" y="0">123</tspan></text><rect class="cls-3" x="141.75" y="162.75" width="15" height="8"/><text class="cls-11" transform="translate(144.18 169.71)"><tspan x="0" y="0">34</tspan></text><rect class="cls-3" x="207.75" y="125.75" width="15" height="8"/><text class="cls-11" transform="translate(212.18 132.71)"><tspan x="0" y="0">6</tspan></text><rect class="cls-3" x="171.75" y="89.75" width="15" height="8"/><text class="cls-11" transform="translate(173.25 96.71)"><tspan x="0" y="0">45</tspan></text><rect class="cls-1" x="168.75" y="68.75" width="20" height="8"/><text class="cls-11" transform="translate(170.18 75.71)"><tspan x="0" y="0">345</tspan></text><rect class="cls-1" x="169.75" y="125.75" width="20" height="8"/><text class="cls-11" transform="translate(171.18 132.71)"><tspan x="0" y="0">234</tspan></text><rect class="cls-2" x="219.75" y="90.75" width="23" height="8"/><text class="cls-11" transform="translate(220.18 97.71)"><tspan x="0" y="0">3456</tspan></text></g></svg>